<svg width="100" height="100" viewBox="0 0 100 100" fill="none" xmlns="http://www.w3.org/2000/svg">
<circle cx="50" cy="50" r="50" fill="#3B82F6"/>
<path d="M50 55C58.2843 55 65 48.2843 65 40C65 31.7157 58.2843 25 50 25C41.7157 25 35 31.7157 35 40C35 48.2843 41.7157 55 50 55ZM61.6667 61.6667H56.765C54.8132 62.5248 52.745 63.0087 50.65 63.0958C54.3067 65.5042 56.6667 69.5375 56.6667 74.1667V80H75C79.1421 80 82.5 76.6421 82.5 72.5V70.8333C82.5 65.0042 75.8417 61.6667 61.6667 61.6667ZM38.3333 74.1667C38.3333 69.5375 40.6933 65.5042 44.35 63.0958C42.255 63.0087 40.1868 62.5248 38.235 61.6667H33.3333C19.1583 61.6667 12.5 65.0042 12.5 70.8333V72.5C12.5 76.6421 15.8579 80 20 80H56.6667V74.1667C56.6667 70.7 48.3333 68.3333 38.3333 68.3333C38.3333 70.6167 38.3333 72.6167 38.3333 74.1667Z" fill="white"/>
</svg>